REM DIRINDEX 1\2,1\3,1\4,1\5\6,1\5\7,1\8
REM DIRNAME cjc115,folder01,folder02,folder03,folder04,folder05,folder06,folder07
TITLE ""
FILE "092 【092】Unit5 (1045 trait_1056 corridor).mp3" MP3
  TRACK 01 AUDIO
    TITLE "0:"
    INDEX 01 00:00:00
  TRACK 02 AUDIO
    TITLE "2:cjc115_3576"
    INDEX 01 00:00:07
  TRACK 03 AUDIO
    TITLE "0:"
    INDEX 01 00:01:09
  TRACK 04 AUDIO
    TITLE "3:cjc115_3577"
    INDEX 01 00:01:22
  TRACK 05 AUDIO
    TITLE "0:"
    INDEX 01 00:02:42
  TRACK 06 AUDIO
    TITLE "4:cjc115_3578"
    INDEX 01 00:02:51
  TRACK 07 AUDIO
    TITLE "0:"
    INDEX 01 00:05:73
  TRACK 08 AUDIO
    TITLE "2:cjc115_3579"
    INDEX 01 00:07:11
  TRACK 09 AUDIO
    TITLE "0:"
    INDEX 01 00:08:36
  TRACK 10 AUDIO
    TITLE "3:cjc115_3580"
    INDEX 01 00:08:48
  TRACK 11 AUDIO
    TITLE "0:"
    INDEX 01 00:10:51
  TRACK 12 AUDIO
    TITLE "4:cjc115_3581"
    INDEX 01 00:10:63
  TRACK 13 AUDIO
    TITLE "0:"
    INDEX 01 00:15:40
  TRACK 14 AUDIO
    TITLE "2:cjc115_3582"
    INDEX 01 00:16:53
  TRACK 15 AUDIO
    TITLE "0:"
    INDEX 01 00:17:72
  TRACK 16 AUDIO
    TITLE "3:cjc115_3583"
    INDEX 01 00:18:11
  TRACK 17 AUDIO
    TITLE "0:"
    INDEX 01 00:20:69
  TRACK 18 AUDIO
    TITLE "4:cjc115_3584"
    INDEX 01 00:21:06
  TRACK 19 AUDIO
    TITLE "0:"
    INDEX 01 00:26:24
  TRACK 20 AUDIO
    TITLE "2:cjc115_3585"
    INDEX 01 00:27:41
  TRACK 21 AUDIO
    TITLE "0:"
    INDEX 01 00:28:49
  TRACK 22 AUDIO
    TITLE "3:cjc115_3586"
    INDEX 01 00:28:57
  TRACK 23 AUDIO
    TITLE "0:"
    INDEX 01 00:30:01
  TRACK 24 AUDIO
    TITLE "4:cjc115_3587"
    INDEX 01 00:30:14
  TRACK 25 AUDIO
    TITLE "0:"
    INDEX 01 00:33:42
  TRACK 26 AUDIO
    TITLE "2:cjc115_3588"
    INDEX 01 00:34:55
  TRACK 27 AUDIO
    TITLE "0:"
    INDEX 01 00:35:70
  TRACK 28 AUDIO
    TITLE "3:cjc115_3589"
    INDEX 01 00:36:09
  TRACK 29 AUDIO
    TITLE "0:"
    INDEX 01 00:38:18
  TRACK 30 AUDIO
    TITLE "4:cjc115_3590"
    INDEX 01 00:38:33
  TRACK 31 AUDIO
    TITLE "0:"
    INDEX 01 00:42:00
  TRACK 32 AUDIO
    TITLE "2:cjc115_3591"
    INDEX 01 00:43:15
  TRACK 33 AUDIO
    TITLE "0:"
    INDEX 01 00:44:30
  TRACK 34 AUDIO
    TITLE "3:cjc115_3592"
    INDEX 01 00:44:44
  TRACK 35 AUDIO
    TITLE "0:"
    INDEX 01 00:47:09
  TRACK 36 AUDIO
    TITLE "4:cjc115_3593"
    INDEX 01 00:47:17
  TRACK 37 AUDIO
    TITLE "0:"
    INDEX 01 00:50:27
  TRACK 38 AUDIO
    TITLE "2:cjc115_3594"
    INDEX 01 00:51:42
  TRACK 39 AUDIO
    TITLE "0:"
    INDEX 01 00:52:69
  TRACK 40 AUDIO
    TITLE "3:cjc115_3595"
    INDEX 01 00:53:09
  TRACK 41 AUDIO
    TITLE "0:"
    INDEX 01 00:54:07
  TRACK 42 AUDIO
    TITLE "4:cjc115_3596"
    INDEX 01 00:54:19
  TRACK 43 AUDIO
    TITLE "0:"
    INDEX 01 00:58:48
  TRACK 44 AUDIO
    TITLE "2:cjc115_3597"
    INDEX 01 00:59:61
  TRACK 45 AUDIO
    TITLE "0:"
    INDEX 01 01:01:03
  TRACK 46 AUDIO
    TITLE "3:cjc115_3598"
    INDEX 01 01:01:15
  TRACK 47 AUDIO
    TITLE "0:"
    INDEX 01 01:03:57
  TRACK 48 AUDIO
    TITLE "4:cjc115_3599"
    INDEX 01 01:03:69
  TRACK 49 AUDIO
    TITLE "0:"
    INDEX 01 01:07:66
  TRACK 50 AUDIO
    TITLE "2:cjc115_3600"
    INDEX 01 01:09:09
  TRACK 51 AUDIO
    TITLE "0:"
    INDEX 01 01:10:24
  TRACK 52 AUDIO
    TITLE "3:cjc115_3601"
    INDEX 01 01:10:35
  TRACK 53 AUDIO
    TITLE "0:"
    INDEX 01 01:12:71
  TRACK 54 AUDIO
    TITLE "4:cjc115_3602"
    INDEX 01 01:13:06
  TRACK 55 AUDIO
    TITLE "0:"
    INDEX 01 01:16:73
  TRACK 56 AUDIO
    TITLE "2:cjc115_3603"
    INDEX 01 01:18:09
  TRACK 57 AUDIO
    TITLE "0:"
    INDEX 01 01:19:15
  TRACK 58 AUDIO
    TITLE "3:cjc115_3604"
    INDEX 01 01:19:28
  TRACK 59 AUDIO
    TITLE "0:"
    INDEX 01 01:21:27
  TRACK 60 AUDIO
    TITLE "4:cjc115_3605"
    INDEX 01 01:21:41
  TRACK 61 AUDIO
    TITLE "0:"
    INDEX 01 01:24:37
  TRACK 62 AUDIO
    TITLE "2:cjc115_3606"
    INDEX 01 01:25:49
  TRACK 63 AUDIO
    TITLE "0:"
    INDEX 01 01:26:60
  TRACK 64 AUDIO
    TITLE "3:cjc115_3607"
    INDEX 01 01:27:03
  TRACK 65 AUDIO
    TITLE "0:"
    INDEX 01 01:28:10
  TRACK 66 AUDIO
    TITLE "4:cjc115_3608"
    INDEX 01 01:28:24
  TRACK 67 AUDIO
    TITLE "0:"
    INDEX 01 01:32:51
  TRACK 68 AUDIO
    TITLE "2:cjc115_3609"
    INDEX 01 01:33:64
  TRACK 69 AUDIO
    TITLE "0:"
    INDEX 01 01:34:73
  TRACK 70 AUDIO
    TITLE "3:cjc115_3610"
    INDEX 01 01:35:10
  TRACK 71 AUDIO
    TITLE "0:"
    INDEX 01 01:37:15
  TRACK 72 AUDIO
    TITLE "4:cjc115_3611"
    INDEX 01 01:37:28
  TRACK 73 AUDIO
    TITLE "0:"
    INDEX 01 01:42:37
